<svg xmlns="http://www.w3.org/2000/svg" width="241.031" height="70.156" viewBox="0 0 241.031 70.156">
  <defs>
    <style>
      .cls-1 {
        fill: #fff;
        fill-rule: evenodd;
      }
    </style>
  </defs>
  <path class="cls-1" d="M356.227,34.569h-3.3v9.945h-3.3V17.057h6.6q4.4,0,4.4,6.02v5.472Q360.624,34.569,356.227,34.569Zm-0.55-3.283a1.517,1.517,0,0,0,1.65-1.642V21.983a1.455,1.455,0,0,0-1.65-1.642h-2.749V31.285h2.749Zm16.385-9.755V24.2a6.585,6.585,0,0,0-2.7-.125,2.22,2.22,0,0,0-1.649,2.38V44.514h-3.3V21.53h3.3v1.641a2.549,2.549,0,0,1,2.2-1.641,16.02,16.02,0,0,1,2.155-.149m13.647,17.114q0,6.02-4.4,6.019h-1.1q-4.4,0-4.4-6.019V27.55q0-6.02,4.4-6.02h1.1q4.4,0,4.4,6.02V38.495Zm-4.926-13.681a1.464,1.464,0,0,0-1.671,1.641V39.589a1.649,1.649,0,0,0,3.3,0V26.455A1.444,1.444,0,0,0,380.783,24.814Zm10.172,2.736q0-6.02,4.4-6.02a2.154,2.154,0,0,1,2.2,1.641V14.963h3.3V44.514h-3.3l0.022-1.664a2.18,2.18,0,0,1-2.2,1.664q-4.421,0-4.42-6.019V27.55ZM395.9,41.231a1.455,1.455,0,0,0,1.649-1.642V26.455a1.65,1.65,0,0,0-3.3,0V39.589A1.467,1.467,0,0,0,395.9,41.231Zm16.888-19.7h3.3V44.514h-3.3V42.873a2.153,2.153,0,0,1-2.2,1.641q-4.4,0-4.4-6.019V21.53h3.3V39.589a1.649,1.649,0,0,0,3.3,0V21.53Zm15.151,15.322h3.3v1.642q0,6.02-4.4,6.019h-1.1q-4.4,0-4.4-6.019V27.55q0-6.02,4.4-6.02h1.1q4.4,0,4.4,6.02v1.642h-3.3V26.455a1.445,1.445,0,0,0-1.627-1.641,1.464,1.464,0,0,0-1.672,1.641V39.589a1.65,1.65,0,0,0,3.3,0V36.852Zm8.964,4.378V24.814h-2.2V21.53h2.2V18.247h3.3V21.53h2.2v3.284h-2.2V40.136a1.078,1.078,0,0,0,1.319,1.095H442.4v3.283h-2.2Q436.905,44.514,436.906,41.231Zm13.516-24.715V19.8h-3.3V16.516h3.3Zm-3.3,28V21.53h3.3V44.514h-3.3Zm18.295-6.019q0,6.02-4.4,6.019h-1.1q-4.4,0-4.4-6.019V27.55q0-6.02,4.4-6.02h1.1q4.4,0,4.4,6.02V38.495Zm-4.926-13.681a1.464,1.464,0,0,0-1.671,1.641V39.589a1.649,1.649,0,0,0,3.3,0V26.455A1.444,1.444,0,0,0,460.493,24.814Zm13.776,19.7h-3.3V21.53h3.3v1.641a2.155,2.155,0,0,1,2.2-1.641q4.4,0,4.4,6.02V44.514h-3.3V26.455a1.649,1.649,0,0,0-3.3,0V44.514Zm-124.223,40.6V58.058h3.02V85.116h-3.02Zm8.776,0V58.058h3.624l4.43,18.64V58.058h3.02V85.116h-3.624l-4.43-17.437V85.116h-3.02Zm22.82-10.937h3.435V79.6q0,5.512-4.581,5.512h-1.051q-4.581,0-4.581-5.512V63.569q0-5.512,4.581-5.511H380.5q4.581,0,4.581,5.511v4.772h-3.435V62.567q0-1.5-1.719-1.5h0.094q-1.717,0-1.718,1.5V80.606q0,1.5,1.718,1.5h-0.094q1.717,0,1.719-1.5V74.179ZM389.1,85.116V82.11h3.02v3.006H389.1ZM239.83,85.04V17.057h7.588V85.04H239.83Zm39.094-27.916h8.65V71.191q0,13.85-11.533,13.849h-2.884q-11.535,0-11.534-13.849V30.905q0-13.847,11.534-13.848h2.884q11.534,0,11.533,13.848v12.3h-8.65V28.388q0-3.777-4.325-3.777h0q-4.326,0-4.326,3.777V73.709q0,3.777,4.326,3.776h0q4.325,0,4.325-3.776V57.124Zm39.167-40.067h8.438V71.191q0,13.85-11.25,13.849h-3.961q-11.25,0-11.25-13.849V17.057h8.438V73.709c0,1.279.79,3.6,4.908,3.6s4.677-2.364,4.677-3.6V17.057Z" transform="translate(-239.844 -14.969)"/>
</svg>
